<svg width="182" height="32" viewBox="0 0 182 32" fill="none" xmlns="http://www.w3.org/2000/svg">
<path d="M16.5 0C7.67349 0 0.5 7.17349 0.5 16C0.5 24.8265 7.67349 32 16.5 32C25.3265 32 32.5 24.8265 32.5 16C32.5 7.17349 25.3265 0 16.5 0ZM21.8957 2.93177C25.3577 4.36647 28.1335 7.1423 29.5682 10.6043L26.3246 11.9454C25.2329 9.32554 23.1745 7.23587 20.5546 6.17544L21.8957 2.93177ZM11.1043 2.93177L12.4454 6.17544C9.82554 7.26706 7.73587 9.32554 6.67544 11.9454L3.43177 10.6043C4.86647 7.11111 7.61111 4.36647 11.1043 2.93177ZM11.1043 29.0682C7.6423 27.6335 4.86647 24.8577 3.43177 21.3957L6.67544 20.0546C7.76706 22.6745 9.82554 24.7641 12.4454 25.8246L11.1043 29.0682ZM7.73587 16C7.73587 11.1657 11.6657 7.23587 16.5 7.23587C21.3343 7.23587 25.2641 11.1657 25.2641 16C25.2641 20.8343 21.3343 24.7641 16.5 24.7641C11.6657 24.7641 7.73587 20.8343 7.73587 16ZM21.8957 29.0682L20.5546 25.8246C23.1745 24.7329 25.2641 22.6745 26.3246 20.0546L29.5682 21.3957C28.1335 24.8889 25.3889 27.6335 21.8957 29.0682Z" fill="url(#paint0_linear_225_2423)"/>
<path d="M17.1095 12.2971L17.7255 12.5419C17.7745 12.561 17.8072 12.6114 17.8072 12.6669C17.8072 12.7225 17.7745 12.7729 17.7255 12.792L17.1095 13.0368L16.8791 13.6914C16.8611 13.7435 16.8137 13.7782 16.7615 13.7782C16.7092 13.7782 16.6618 13.7435 16.6438 13.6914L16.4134 13.0368L15.7974 12.792C15.7484 12.7729 15.7157 12.7225 15.7157 12.6669C15.7157 12.6114 15.7484 12.561 15.7974 12.5419L16.4134 12.2971L16.6438 11.6425C16.6618 11.5904 16.7092 11.5557 16.7615 11.5557C16.8137 11.5557 16.8611 11.5904 16.8791 11.6425L17.1095 12.2971ZM20.1912 18.4213C20.4967 18.746 20.4967 19.2738 20.1912 19.6002L19.6258 20.201C19.3203 20.5257 18.8235 20.5257 18.5164 20.201L12.286 13.5785C11.9804 13.2538 11.9804 12.726 12.286 12.3995L12.8513 11.8005C13.1569 11.4758 13.6536 11.4758 13.9608 11.8005L20.1912 18.4213ZM13.0262 12.9899L14.7418 14.8131L15.1226 14.4085L13.4069 12.5853L13.0262 12.9899ZM20.8219 13.5907C20.8954 13.6202 20.9445 13.6949 20.9445 13.7782C20.9445 13.8616 20.8954 13.9362 20.8219 13.9657L19.8987 14.3338L19.5523 15.3149C19.5245 15.393 19.4543 15.4451 19.3758 15.4451C19.2974 15.4451 19.2271 15.393 19.1994 15.3149L18.853 14.3338L17.9298 13.9657C17.8562 13.9362 17.8072 13.8616 17.8072 13.7782C17.8072 13.6949 17.8562 13.6202 17.9298 13.5907L18.853 13.2226L19.1994 12.2415C19.2271 12.1634 19.2974 12.1113 19.3758 12.1113C19.4543 12.1113 19.5245 12.1634 19.5523 12.2415L19.8987 13.2226L20.8219 13.5907ZM15.0703 18.0358C15.1438 18.0653 15.1928 18.14 15.1928 18.2233C15.1928 18.3067 15.1438 18.3813 15.0703 18.4108L14.1471 18.7789L13.8007 19.76C13.7729 19.8381 13.7026 19.8902 13.6242 19.8902C13.5458 19.8902 13.4755 19.8381 13.4477 19.76L13.1013 18.7789L12.1781 18.4108C12.1046 18.3813 12.0556 18.3067 12.0556 18.2233C12.0556 18.14 12.1046 18.0653 12.1781 18.0358L13.1013 17.6677L13.4477 16.6866C13.4755 16.6085 13.5458 16.5564 13.6242 16.5564C13.7026 16.5564 13.7729 16.6085 13.8007 16.6866L14.1471 17.6677L15.0703 18.0358Z" fill="url(#paint1_linear_225_2423)"/>
<path d="M45.0778 26.1363L39.0322 5.86418H42.7206L45.9375 16.5687C46.1039 17.1234 46.261 17.715 46.4089 18.3436C46.5568 18.9537 46.7047 19.7024 46.8527 20.5899C47.019 19.684 47.1762 18.9352 47.3241 18.3436C47.4905 17.7335 47.6569 17.1419 47.8233 16.5687L51.0402 5.86418H54.9504L58.0841 16.5687C58.2505 17.1419 58.4077 17.7427 58.5556 18.3713C58.7219 18.9999 58.8883 19.7394 59.0547 20.5899C59.2396 19.647 59.406 18.8797 59.5539 18.2881C59.7203 17.678 59.8774 17.1234 60.0254 16.6242L63.2977 5.86418H66.9029L60.7464 26.1363H57.3076L52.9814 11.3828L48.5443 26.1363H45.0778Z" fill="#0D0D0D"/>
<path d="M68.793 26.1363V12.4367H72.1763V26.1363H68.793ZM70.4569 9.69119C69.8838 9.69119 69.3939 9.49707 68.9871 9.10882C68.5989 8.70209 68.4047 8.21215 68.4047 7.63903C68.4047 7.0659 68.5989 6.58521 68.9871 6.19696C69.3939 5.80871 69.8838 5.61459 70.4569 5.61459C71.03 5.61459 71.5107 5.80871 71.899 6.19696C72.3057 6.58521 72.5091 7.0659 72.5091 7.63903C72.5091 8.21215 72.3057 8.70209 71.899 9.10882C71.5107 9.49707 71.03 9.69119 70.4569 9.69119Z" fill="#0D0D0D"/>
<path d="M85.7108 26.1363H74.6735V23.3631L81.4956 15.2653H74.6735V12.4367H85.7108V15.2376L78.8055 23.3076H85.7108V26.1363Z" fill="#0D0D0D"/>
<path d="M92.3015 26.4968C90.8594 26.4968 89.7132 26.1085 88.8627 25.332C88.0308 24.5371 87.6148 23.5017 87.6148 22.2261C87.6148 20.9689 88.0493 19.9705 88.9182 19.231C89.8056 18.473 91.0628 18.0293 92.6897 17.8999L96.7941 17.5671V17.262C96.7941 16.6334 96.6739 16.1343 96.4336 15.7645C96.2117 15.3763 95.8882 15.0989 95.4629 14.9325C95.0377 14.7477 94.5385 14.6552 93.9654 14.6552C92.9671 14.6552 92.1998 14.8586 91.6637 15.2653C91.1275 15.6536 90.8594 16.2082 90.8594 16.9292H87.9753C87.9753 15.9309 88.2249 15.0712 88.7241 14.3502C89.2417 13.6107 89.9628 13.0375 90.8872 12.6308C91.8301 12.2241 92.9116 12.0207 94.1318 12.0207C95.3705 12.0207 96.4336 12.2425 97.321 12.6863C98.2084 13.1115 98.8925 13.7586 99.3732 14.6275C99.8539 15.4779 100.094 16.541 100.094 17.8167V26.1363H97.1269L96.8773 24.1118C96.5815 24.8144 96.0083 25.3875 95.1579 25.8312C94.3259 26.2749 93.3738 26.4968 92.3015 26.4968ZM93.383 23.9454C94.4369 23.9454 95.2688 23.6496 95.8789 23.058C96.5075 22.4664 96.8218 21.6437 96.8218 20.5899V19.8688L93.9654 20.0907C92.9116 20.1831 92.1628 20.405 91.7191 20.7563C91.2754 21.089 91.0536 21.5328 91.0536 22.0874C91.0536 22.6975 91.2569 23.1597 91.6637 23.474C92.0704 23.7883 92.6435 23.9454 93.383 23.9454Z" fill="#0D0D0D"/>
<path d="M111.738 12.3812V15.5149H110.49C109.251 15.5149 108.28 15.8477 107.578 16.5133C106.875 17.1603 106.524 18.1495 106.524 19.4806V26.1363H103.141V12.4644H106.33L106.607 15.2931H106.274C106.459 14.3871 106.894 13.6476 107.578 13.0745C108.262 12.5014 109.149 12.2148 110.24 12.2148C110.48 12.2148 110.721 12.224 110.961 12.2425C111.201 12.261 111.46 12.3072 111.738 12.3812Z" fill="#0D0D0D"/>
<path d="M118.919 26.4968C117.588 26.4968 116.442 26.201 115.481 25.6094C114.538 24.9993 113.798 24.1581 113.262 23.0858C112.744 22.0134 112.486 20.7655 112.486 19.3419C112.486 17.9184 112.744 16.6612 113.262 15.5704C113.798 14.4611 114.566 13.5922 115.564 12.9636C116.562 12.335 117.745 12.0207 119.114 12.0207C120.075 12.0207 120.953 12.2148 121.748 12.6031C122.543 12.9728 123.153 13.4997 123.578 14.1838V5.50366H126.934V26.1363H123.828L123.606 24.0009C123.199 24.7774 122.571 25.3875 121.72 25.8312C120.888 26.2749 119.955 26.4968 118.919 26.4968ZM119.668 23.3908C120.463 23.3908 121.147 23.2244 121.72 22.8916C122.294 22.5404 122.737 22.0504 123.052 21.4218C123.384 20.7747 123.551 20.0445 123.551 19.231C123.551 18.399 123.384 17.678 123.052 17.0679C122.737 16.4393 122.294 15.9494 121.72 15.5981C121.147 15.2284 120.463 15.0435 119.668 15.0435C118.892 15.0435 118.217 15.2284 117.644 15.5981C117.071 15.9494 116.627 16.4393 116.313 17.0679C116.017 17.6965 115.869 18.4175 115.869 19.231C115.869 20.0445 116.017 20.7655 116.313 21.3941C116.627 22.0227 117.071 22.5126 117.644 22.8639C118.217 23.2152 118.892 23.3908 119.668 23.3908Z" fill="#0D0D0D"/>
<path d="M130.515 21.9765H133.732C133.751 22.5681 133.973 23.0395 134.398 23.3908C134.823 23.7421 135.415 23.9177 136.173 23.9177C136.986 23.9177 137.596 23.7698 138.003 23.474C138.428 23.1782 138.641 22.7807 138.641 22.2815C138.641 21.9487 138.53 21.6529 138.308 21.3941C138.086 21.1353 137.67 20.9411 137.06 20.8117L134.592 20.2294C133.353 19.952 132.429 19.5083 131.819 18.8982C131.227 18.2696 130.931 17.4099 130.931 16.3191C130.931 15.4317 131.162 14.6645 131.625 14.0174C132.105 13.3703 132.752 12.8804 133.566 12.5476C134.379 12.1963 135.313 12.0207 136.367 12.0207C137.384 12.0207 138.28 12.2056 139.057 12.5753C139.833 12.9451 140.434 13.4627 140.859 14.1283C141.303 14.7939 141.534 15.5704 141.553 16.4578H138.336C138.336 15.8662 138.151 15.404 137.781 15.0712C137.411 14.7199 136.894 14.5443 136.228 14.5443C135.563 14.5443 135.045 14.6922 134.675 14.988C134.305 15.2838 134.12 15.6813 134.12 16.1805C134.12 16.9385 134.712 17.4562 135.895 17.7335L138.363 18.3158C139.51 18.5747 140.369 18.9907 140.943 19.5638C141.534 20.1369 141.83 20.9504 141.83 22.0042C141.83 22.9286 141.59 23.7328 141.109 24.4169C140.628 25.0825 139.953 25.6001 139.085 25.9699C138.216 26.3212 137.217 26.4968 136.089 26.4968C134.389 26.4968 133.03 26.0808 132.013 25.2488C131.015 24.4169 130.515 23.3261 130.515 21.9765Z" fill="#0D0D0D"/>
<path d="M146.68 26.1363H143.297V5.50366H146.708V14.2115C147.133 13.5459 147.725 13.019 148.483 12.6308C149.259 12.2241 150.147 12.0207 151.145 12.0207C152.827 12.0207 154.103 12.5291 154.972 13.5459C155.859 14.5628 156.303 15.9494 156.303 17.7057V26.1363H152.92V18.51C152.92 17.7335 152.8 17.0956 152.559 16.5965C152.319 16.0973 151.986 15.7275 151.561 15.4872C151.136 15.2284 150.636 15.0989 150.063 15.0989C149.361 15.0989 148.751 15.2561 148.233 15.5704C147.734 15.8662 147.346 16.2822 147.068 16.8183C146.809 17.3545 146.68 17.9646 146.68 18.6486V26.1363Z" fill="#0D0D0D"/>
<path d="M157.714 19.2587C157.714 17.8352 158.028 16.5872 158.657 15.5149C159.285 14.4241 160.154 13.5737 161.263 12.9636C162.373 12.3535 163.63 12.0484 165.035 12.0484C166.459 12.0484 167.716 12.3535 168.807 12.9636C169.916 13.5737 170.785 14.4241 171.413 15.5149C172.042 16.5872 172.356 17.8352 172.356 19.2587C172.356 20.6823 172.042 21.9395 171.413 23.0303C170.785 24.1026 169.916 24.9438 168.807 25.5539C167.716 26.164 166.459 26.4691 165.035 26.4691C163.63 26.4691 162.373 26.164 161.263 25.5539C160.154 24.9438 159.285 24.1026 158.657 23.0303C158.028 21.9395 157.714 20.6823 157.714 19.2587ZM161.097 19.2587C161.097 20.0907 161.263 20.821 161.596 21.4496C161.947 22.0782 162.41 22.5681 162.983 22.9194C163.574 23.2706 164.258 23.4463 165.035 23.4463C165.811 23.4463 166.495 23.2706 167.087 22.9194C167.679 22.5681 168.141 22.0782 168.474 21.4496C168.806 20.821 168.973 20.0907 168.973 19.2587C168.973 18.4083 168.806 17.678 168.474 17.0679C168.141 16.4393 167.679 15.9494 167.087 15.5981C166.495 15.2468 165.811 15.0712 165.035 15.0712C164.258 15.0712 163.574 15.2468 162.983 15.5981C162.41 15.9494 161.947 16.4393 161.596 17.0679C161.263 17.678 161.097 18.4083 161.097 19.2587Z" fill="#0D0D0D"/>
<path d="M172.434 12.4367H181.087V15.2653H172.434V12.4367ZM178.452 26.1363H175.069V8.16593H178.452V26.1363Z" fill="#0D0D0D"/>
<defs>
<linearGradient id="paint0_linear_225_2423" x1="16.5" y1="0" x2="16.5" y2="32" gradientUnits="userSpaceOnUse">
<stop stop-color="#5237F8"/>
<stop offset="0.0001" stop-color="#6033EF"/>
<stop offset="1" stop-color="#FF008A"/>
</linearGradient>
<linearGradient id="paint1_linear_225_2423" x1="16.5" y1="11.5557" x2="16.5" y2="20.4446" gradientUnits="userSpaceOnUse">
<stop stop-color="#5237F8"/>
<stop offset="0.0001" stop-color="#6033EF"/>
<stop offset="1" stop-color="#FF008A"/>
</linearGradient>
</defs>
</svg>
