<svg width="21" height="20" viewBox="0 0 21 20" fill="none" xmlns="http://www.w3.org/2000/svg">
<path d="M10.5 0C4.98343 0 0.5 4.48343 0.5 10C0.5 15.5166 4.98343 20 10.5 20C16.0166 20 20.5 15.5166 20.5 10C20.5 4.48343 16.0166 0 10.5 0ZM13.8723 1.83236C16.0361 2.72905 17.771 4.46394 18.6676 6.62768L16.6404 7.46589C15.9581 5.82846 14.6715 4.52242 13.0341 3.85965L13.8723 1.83236ZM7.12768 1.83236L7.96589 3.85965C6.32846 4.54191 5.02242 5.82846 4.35965 7.46589L2.33236 6.62768C3.22905 4.44444 4.94444 2.72905 7.12768 1.83236ZM7.12768 18.1676C4.96394 17.271 3.22905 15.5361 2.33236 13.3723L4.35965 12.5341C5.04191 14.1715 6.32846 15.4776 7.96589 16.1404L7.12768 18.1676ZM5.02242 10C5.02242 6.97856 7.47856 4.52242 10.5 4.52242C13.5214 4.52242 15.9776 6.97856 15.9776 10C15.9776 13.0214 13.5214 15.4776 10.5 15.4776C7.47856 15.4776 5.02242 13.0214 5.02242 10ZM13.8723 18.1676L13.0341 16.1404C14.6715 15.4581 15.9776 14.1715 16.6404 12.5341L18.6676 13.3723C17.771 15.5556 16.0556 17.271 13.8723 18.1676Z" fill="url(#paint0_linear_225_2471)"/>
<path d="M10.8817 7.68556L11.2667 7.83858C11.2974 7.85052 11.3178 7.88199 11.3178 7.91671C11.3178 7.95144 11.2974 7.98291 11.2667 7.99485L10.8817 8.14787L10.7377 8.557C10.7265 8.58956 10.6969 8.61126 10.6642 8.61126C10.6315 8.61126 10.6019 8.58956 10.5907 8.557L10.4467 8.14787L10.0617 7.99485C10.031 7.98291 10.0106 7.95144 10.0106 7.91671C10.0106 7.88199 10.031 7.85052 10.0617 7.83858L10.4467 7.68556L10.5907 7.27643C10.6019 7.24387 10.6315 7.22217 10.6642 7.22217C10.6969 7.22217 10.7265 7.24387 10.7377 7.27643L10.8817 7.68556ZM12.8078 11.5132C12.9987 11.7161 12.9987 12.046 12.8078 12.25L12.4544 12.6255C12.2635 12.8285 11.953 12.8285 11.761 12.6255L7.867 8.48646C7.67603 8.28352 7.67603 7.95361 7.867 7.74959L8.22035 7.37519C8.41133 7.17225 8.72178 7.17225 8.91378 7.37519L12.8078 11.5132ZM8.32963 8.11857L9.40193 9.25806L9.63988 9.0052L8.56758 7.86571L8.32963 8.11857ZM13.202 8.49406C13.2479 8.5125 13.2786 8.55917 13.2786 8.61126C13.2786 8.66335 13.2479 8.71002 13.202 8.72846L12.625 8.95853L12.4085 9.57169C12.3911 9.62052 12.3472 9.65308 12.2982 9.65308C12.2492 9.65308 12.2052 9.62052 12.1879 9.57169L11.9714 8.95853L11.3944 8.72846C11.3484 8.71002 11.3178 8.66335 11.3178 8.61126C11.3178 8.55917 11.3484 8.5125 11.3944 8.49406L11.9714 8.26399L12.1879 7.65083C12.2052 7.602 12.2492 7.56944 12.2982 7.56944C12.3472 7.56944 12.3911 7.602 12.4085 7.65083L12.625 8.26399L13.202 8.49406ZM9.6072 11.2722C9.65316 11.2907 9.68379 11.3374 9.68379 11.3894C9.68379 11.4415 9.65316 11.4882 9.6072 11.5066L9.0302 11.7367L8.8137 12.3499C8.79633 12.3987 8.75242 12.4313 8.7034 12.4313C8.65438 12.4313 8.61047 12.3987 8.59311 12.3499L8.3766 11.7367L7.7996 11.5066C7.75365 11.4882 7.72301 11.4415 7.72301 11.3894C7.72301 11.3374 7.75365 11.2907 7.7996 11.2722L8.3766 11.0422L8.59311 10.429C8.61047 10.3802 8.65438 10.3476 8.7034 10.3476C8.75242 10.3476 8.79633 10.3802 8.8137 10.429L9.0302 11.0422L9.6072 11.2722Z" fill="url(#paint1_linear_225_2471)"/>
<defs>
<linearGradient id="paint0_linear_225_2471" x1="10.5" y1="0" x2="10.5" y2="20" gradientUnits="userSpaceOnUse">
<stop stop-color="#5237F8"/>
<stop offset="0.0001" stop-color="#6033EF"/>
<stop offset="1" stop-color="#FF008A"/>
</linearGradient>
<linearGradient id="paint1_linear_225_2471" x1="10.5008" y1="7.22217" x2="10.5008" y2="12.7777" gradientUnits="userSpaceOnUse">
<stop stop-color="#5237F8"/>
<stop offset="0.0001" stop-color="#6033EF"/>
<stop offset="1" stop-color="#FF008A"/>
</linearGradient>
</defs>
</svg>
