<svg width="111" height="17" viewBox="0 0 111 17" fill="none" xmlns="http://www.w3.org/2000/svg">
<path d="M5.55793 16.7288L0.871094 1.01289H3.73049L6.2244 9.31159C6.3534 9.74158 6.47523 10.2002 6.58989 10.6875C6.70455 11.1605 6.81922 11.741 6.93388 12.429C7.06287 11.7267 7.1847 11.1462 7.29937 10.6875C7.42836 10.2146 7.55736 9.75591 7.68635 9.31159L10.1803 1.01289H13.2117L15.6411 9.31159C15.7701 9.75591 15.8919 10.2217 16.0066 10.709C16.1356 11.1964 16.2645 11.7697 16.3935 12.429C16.5369 11.698 16.6659 11.1032 16.7805 10.6445C16.9095 10.1716 17.0314 9.74158 17.146 9.35459L19.6829 1.01289H22.4778L17.705 16.7288H15.0391L11.6852 5.29124L8.24533 16.7288H5.55793Z" fill="#1E293B"/>
<path d="M23.9431 16.7288V6.10821H26.566V16.7288H23.9431ZM25.2331 3.97978C24.7888 3.97978 24.4089 3.82929 24.0936 3.5283C23.7926 3.21298 23.6421 2.83316 23.6421 2.38884C23.6421 1.94452 23.7926 1.57187 24.0936 1.27088C24.4089 0.96989 24.7888 0.819396 25.2331 0.819396C25.6774 0.819396 26.0501 0.96989 26.351 1.27088C26.6664 1.57187 26.824 1.94452 26.824 2.38884C26.824 2.83316 26.6664 3.21298 26.351 3.5283C26.0501 3.82929 25.6774 3.97978 25.2331 3.97978Z" fill="#1E293B"/>
<path d="M37.0587 16.7288H28.502V14.5789L33.7908 8.30113H28.502V6.10821H37.0587V8.27963L31.7054 14.5359H37.0587V16.7288Z" fill="#1E293B"/>
<path d="M42.1681 17.0083C41.0501 17.0083 40.1615 16.7073 39.5022 16.1054C38.8572 15.489 38.5347 14.6864 38.5347 13.6974C38.5347 12.7228 38.8716 11.9488 39.5452 11.3755C40.2332 10.7879 41.2078 10.4439 42.4691 10.3436L45.651 10.0856V9.84907C45.651 9.36176 45.5578 8.97477 45.3715 8.68812C45.1995 8.38713 44.9487 8.17213 44.619 8.04314C44.2894 7.89981 43.9024 7.82815 43.4581 7.82815C42.6841 7.82815 42.0893 7.98581 41.6736 8.30113C41.258 8.60212 41.0501 9.0321 41.0501 9.59108H38.8142C38.8142 8.81711 39.0077 8.15064 39.3947 7.59166C39.796 7.01834 40.355 6.57402 41.0716 6.2587C41.8026 5.94338 42.6411 5.78572 43.5871 5.78572C44.5474 5.78572 45.3715 5.95771 46.0595 6.3017C46.7474 6.63136 47.2778 7.133 47.6504 7.80665C48.0231 8.46596 48.2094 9.29009 48.2094 10.2791V16.7288H45.909L45.7155 15.1594C45.4862 15.704 45.0418 16.1484 44.3825 16.4923C43.7375 16.8363 42.9994 17.0083 42.1681 17.0083ZM43.0066 15.0304C43.8235 15.0304 44.4685 14.8011 44.9415 14.3424C45.4288 13.8838 45.6725 13.246 45.6725 12.429V11.87L43.4581 12.042C42.6411 12.1137 42.0606 12.2857 41.7166 12.558C41.3726 12.816 41.2006 13.16 41.2006 13.5899C41.2006 14.0629 41.3583 14.4212 41.6736 14.6649C41.9889 14.9086 42.4333 15.0304 43.0066 15.0304Z" fill="#1E293B"/>
<path d="M57.2359 6.06521V8.49462H56.2684C55.3081 8.49462 54.5556 8.75261 54.011 9.2686C53.4663 9.77024 53.194 10.5371 53.194 11.569V16.7288H50.5711V6.12971H53.0435L53.2585 8.32263H53.0005C53.1439 7.62032 53.4807 7.04701 54.011 6.60269C54.5413 6.15837 55.2293 5.93621 56.0749 5.93621C56.2612 5.93621 56.4476 5.94338 56.6339 5.95771C56.8202 5.97205 57.0209 6.00788 57.2359 6.06521Z" fill="#1E293B"/>
<path d="M62.8037 17.0083C61.7717 17.0083 60.8831 16.779 60.1378 16.3203C59.4068 15.8474 58.8335 15.1952 58.4178 14.3639C58.0165 13.5326 57.8158 12.5651 57.8158 11.4615C57.8158 10.3579 58.0165 9.38326 58.4178 8.53762C58.8335 7.67765 59.4283 7.00401 60.2023 6.51669C60.9762 6.02938 61.8935 5.78572 62.9542 5.78572C63.6995 5.78572 64.3803 5.93621 64.9966 6.2372C65.6129 6.52386 66.0859 6.93235 66.4155 7.46266V0.733398H69.017V16.7288H66.609L66.437 15.0734C66.1217 15.6754 65.6344 16.1484 64.9751 16.4923C64.3301 16.8363 63.6063 17.0083 62.8037 17.0083ZM63.3842 14.6004C64.0005 14.6004 64.5308 14.4714 64.9751 14.2134C65.4194 13.9411 65.7634 13.5613 66.0071 13.074C66.2651 12.5723 66.394 12.0062 66.394 11.3755C66.394 10.7305 66.2651 10.1716 66.0071 9.69858C65.7634 9.21126 65.4194 8.83144 64.9751 8.55912C64.5308 8.27246 64.0005 8.12914 63.3842 8.12914C62.7822 8.12914 62.259 8.27246 61.8147 8.55912C61.3704 8.83144 61.0264 9.21126 60.7827 9.69858C60.5534 10.1859 60.4388 10.7449 60.4388 11.3755C60.4388 12.0062 60.5534 12.5651 60.7827 13.0525C61.0264 13.5398 61.3704 13.9196 61.8147 14.1919C62.259 14.4642 62.7822 14.6004 63.3842 14.6004Z" fill="#1E293B"/>
<path d="M71.7934 13.5039H74.2873C74.3016 13.9626 74.4736 14.3281 74.8033 14.6004C75.1329 14.8727 75.5916 15.0089 76.1792 15.0089C76.8099 15.0089 77.2828 14.8942 77.5982 14.6649C77.9278 14.4356 78.0927 14.1274 78.0927 13.7404C78.0927 13.4824 78.0067 13.2531 77.8347 13.0525C77.6627 12.8518 77.3402 12.7013 76.8672 12.601L74.9538 12.1495C73.9935 11.9345 73.2768 11.5905 72.8038 11.1175C72.3452 10.6302 72.1159 9.96374 72.1159 9.1181C72.1159 8.43013 72.295 7.83531 72.6533 7.33366C73.026 6.83202 73.5276 6.4522 74.1583 6.1942C74.7889 5.92188 75.5127 5.78572 76.3297 5.78572C77.118 5.78572 77.8132 5.92905 78.4151 6.2157C79.0171 6.50236 79.4829 6.90368 79.8126 7.41966C80.1566 7.93564 80.3357 8.53762 80.3501 9.2256H77.8562C77.8562 8.76695 77.7128 8.40863 77.4262 8.15064C77.1395 7.87831 76.7382 7.74215 76.2222 7.74215C75.7062 7.74215 75.3049 7.85681 75.0183 8.08614C74.7316 8.31546 74.5883 8.62362 74.5883 9.0106C74.5883 9.59825 75.0469 9.99957 75.9642 10.2146L77.8777 10.666C78.7663 10.8667 79.4328 11.1892 79.8771 11.6335C80.3357 12.0778 80.5651 12.7085 80.5651 13.5254C80.5651 14.2421 80.3787 14.8656 80.0061 15.3959C79.6334 15.9119 79.1103 16.3132 78.4366 16.5998C77.763 16.8722 76.989 17.0083 76.1147 17.0083C74.7961 17.0083 73.7426 16.6858 72.9543 16.0409C72.1804 15.3959 71.7934 14.5502 71.7934 13.5039Z" fill="#1E293B"/>
<path d="M84.3251 16.7288H81.7022V0.733398H84.3466V7.48416C84.6762 6.96818 85.1349 6.55969 85.7225 6.2587C86.3245 5.94338 87.0125 5.78572 87.7865 5.78572C89.0907 5.78572 90.0797 6.17987 90.7533 6.96818C91.4413 7.75648 91.7853 8.83144 91.7853 10.1931V16.7288H89.1624V10.8165C89.1624 10.2146 89.0692 9.72008 88.8829 9.33309C88.6966 8.94611 88.4386 8.65945 88.1089 8.47312C87.7793 8.27246 87.3923 8.17213 86.948 8.17213C86.4033 8.17213 85.9304 8.29396 85.529 8.53762C85.1421 8.76695 84.8411 9.08944 84.6261 9.50509C84.4254 9.92074 84.3251 10.3937 84.3251 10.924V16.7288Z" fill="#1E293B"/>
<path d="M92.8789 11.397C92.8789 10.2934 93.1226 9.32593 93.6099 8.49462C94.0972 7.64899 94.7708 6.98968 95.6308 6.51669C96.4908 6.04371 97.4654 5.80722 98.5547 5.80722C99.6583 5.80722 100.633 6.04371 101.479 6.51669C102.339 6.98968 103.012 7.64899 103.5 8.49462C103.987 9.32593 104.231 10.2934 104.231 11.397C104.231 12.5006 103.987 13.4753 103.5 14.3209C103.012 15.1522 102.339 15.8044 101.479 16.2773C100.633 16.7503 99.6583 16.9868 98.5547 16.9868C97.4654 16.9868 96.4908 16.7503 95.6308 16.2773C94.7708 15.8044 94.0972 15.1522 93.6099 14.3209C93.1226 13.4753 92.8789 12.5006 92.8789 11.397ZM95.5018 11.397C95.5018 12.042 95.6308 12.6081 95.8888 13.0955C96.1611 13.5828 96.5195 13.9626 96.9638 14.2349C97.4224 14.5072 97.9527 14.6434 98.5547 14.6434C99.1567 14.6434 99.687 14.5072 100.146 14.2349C100.604 13.9626 100.963 13.5828 101.221 13.0955C101.479 12.6081 101.608 12.042 101.608 11.397C101.608 10.7377 101.479 10.1716 101.221 9.69858C100.963 9.21126 100.604 8.83144 100.146 8.55912C99.687 8.2868 99.1567 8.15064 98.5547 8.15064C97.9527 8.15064 97.4224 8.2868 96.9638 8.55912C96.5195 8.83144 96.1611 9.21126 95.8888 9.69858C95.6308 10.1716 95.5018 10.7377 95.5018 11.397Z" fill="#1E293B"/>
<path d="M104.291 6.10821H110.999V8.30113H104.291V6.10821ZM108.956 16.7288H106.334V2.79733H108.956V16.7288Z" fill="#1E293B"/>
</svg>
