<svg width="25" height="72" viewBox="0 0 25 72" fill="none" xmlns="http://www.w3.org/2000/svg">
<path d="M0.888491 0.39426C10.0666 3.7235 21.996 20.6553 23.9111 32.5777C26.023 45.4611 23.8158 52.8101 13.2044 67.6694C14.6655 67.5013 15.8365 67.2762 16.9312 67.2004C18.1726 67.0776 19.4869 66.9565 20.7239 67.0349C21.088 67.0432 21.7331 67.5109 21.7991 67.8144C21.8651 68.1179 21.3439 68.6094 20.9775 68.7017C17.4612 69.5279 13.9472 70.2534 10.3593 71.0276C9.18836 71.2526 8.3213 70.9309 7.97659 70.0674C6.88565 66.7709 5.72188 63.4727 4.70491 60.1275C4.50357 59.3679 4.81545 58.469 4.83831 57.4628C7.95157 58.3389 7.54629 60.1417 8.31767 61.4679C9.16074 62.8461 9.63738 64.3167 10.4713 66.0973C14.6444 62.0143 17.2894 57.8463 18.9933 53.4052C25.3376 37.1403 20.7283 21.9352 7.79039 7.69857C6.08369 5.84775 4.08226 4.14125 2.30159 2.33908C1.95003 1.77741 1.59733 1.26605 0.888491 0.39426Z" fill="url('#paint0_linear_225_2398')"></path>
<defs>
<linearGradient id="paint0_linear_225_2398" x1="24.7403" y1="36.1883" x2="0.0880924" y2="35.6283" gradientUnits="userSpaceOnUse">
<stop stop-color="#F0FBB9"></stop>
<stop offset="0.290069" stop-color="#FBB3A0"></stop>
<stop offset="0.531579" stop-color="#BFA2FD"></stop>
<stop offset="0.748685" stop-color="#A4D0FC"></stop>
<stop offset="0.875908" stop-color="#9FE9E2"></stop>
<stop offset="1" stop-color="#9FFACE"></stop>
</linearGradient>
</defs>
</svg>
