<svg width="140" height="26" fill="none" xmlns="http://www.w3.org/2000/svg"><path d="M12.404.467C5.561.467 0 6.028 0 12.871s5.561 12.404 12.404 12.404 12.404-5.561 12.404-12.404S19.247.467 12.404.467Zm4.183 2.273a11.029 11.029 0 0 1 5.948 5.948l-2.515 1.04c-.846-2.031-2.442-3.651-4.473-4.473l1.04-2.515Zm-8.366 0 1.04 2.515C7.23 6.1 5.61 7.697 4.788 9.728l-2.515-1.04A10.874 10.874 0 0 1 8.22 2.74Zm0 20.262a11.029 11.029 0 0 1-5.948-5.948l2.515-1.04c.846 2.031 2.442 3.651 4.473 4.474l-1.04 2.514ZM5.61 12.871a6.8 6.8 0 0 1 6.794-6.794 6.8 6.8 0 0 1 6.794 6.794 6.8 6.8 0 0 1-6.794 6.794 6.8 6.8 0 0 1-6.794-6.794Zm10.977 10.131-1.04-2.514c2.031-.847 3.651-2.443 4.473-4.474l2.515 1.04a10.874 10.874 0 0 1-5.948 5.948Z" fill="url('#paint0_linear_29_8')"/><path d="m12.877 10 .478.19a.104.104 0 0 1 .063.097.103.103 0 0 1-.063.097l-.478.19-.178.507a.098.098 0 0 1-.091.067.098.098 0 0 1-.091-.067l-.18-.507-.477-.19a.103.103 0 0 1-.063-.097c0-.043.025-.082.063-.097l.478-.19.179-.507a.098.098 0 0 1 .09-.068c.041 0 .078.027.092.068l.178.507Zm2.39 4.748a.677.677 0 0 1 0 .914l-.439.466a.584.584 0 0 1-.86 0l-4.83-5.134a.677.677 0 0 1 0-.914l.438-.465a.584.584 0 0 1 .86 0l4.83 5.133Zm-5.555-4.21 1.33 1.413.295-.314-1.33-1.413-.295.313Zm6.044.465c.057.023.095.08.095.145a.156.156 0 0 1-.095.146l-.716.285-.269.76a.147.147 0 0 1-.137.102.147.147 0 0 1-.136-.101l-.269-.76-.716-.286a.156.156 0 0 1-.095-.146c0-.064.038-.122.095-.145l.716-.285.269-.76a.147.147 0 0 1 .136-.102c.061 0 .116.04.137.101l.269.76.716.286Zm-4.46 3.446c.058.023.096.08.096.145a.156.156 0 0 1-.095.146l-.716.285-.269.76a.147.147 0 0 1-.136.102.147.147 0 0 1-.137-.101l-.269-.76-.716-.286a.156.156 0 0 1-.095-.146c0-.064.038-.122.095-.145l.716-.285.269-.76c.021-.061.076-.102.137-.102.06 0 .115.04.136.101l.269.76.716.286Z" fill="url('#paint1_linear_29_8')"/><path d="M34.558 20.729 29.87 5.013h2.86l2.493 8.299a25.019 25.019 0 0 1 .71 3.117c.129-.702.25-1.283.365-1.742.13-.472.258-.931.387-1.375l2.494-8.3h3.032l2.43 8.3c.128.444.25.91.365 1.397.129.487.258 1.06.387 1.72.143-.731.272-1.326.387-1.784.129-.473.25-.903.365-1.29l2.537-8.342h2.795l-4.773 15.716h-2.666L40.685 9.29l-3.44 11.438h-2.687ZM52.943 20.729v-10.62h2.623v10.62h-2.623Zm1.29-12.75c-.444 0-.824-.15-1.14-.45a1.591 1.591 0 0 1-.45-1.14c0-.444.15-.817.45-1.118a1.591 1.591 0 0 1 1.14-.452c.444 0 .817.15 1.118.452.315.3.473.674.473 1.118 0 .444-.158.824-.473 1.14-.3.3-.674.45-1.118.45ZM66.059 20.729h-8.557v-2.15l5.289-6.278h-5.289v-2.193h8.557v2.172l-5.354 6.256h5.354v2.193ZM71.168 21.008c-1.118 0-2.007-.3-2.666-.903-.645-.616-.967-1.419-.967-2.408 0-.974.337-1.748 1.01-2.321.688-.588 1.663-.932 2.924-1.032l3.182-.258v-.237c0-.487-.093-.874-.28-1.16a1.448 1.448 0 0 0-.752-.646c-.33-.143-.717-.215-1.16-.215-.775 0-1.37.158-1.785.473-.416.301-.624.731-.624 1.29h-2.236c0-.774.194-1.44.58-2 .402-.573.961-1.017 1.678-1.332.73-.316 1.57-.473 2.515-.473.96 0 1.784.172 2.472.516.688.33 1.219.831 1.591 1.505.373.659.56 1.483.56 2.472v6.45h-2.301l-.194-1.57c-.229.545-.673.99-1.333 1.333-.645.344-1.383.516-2.214.516Zm.839-1.978c.816 0 1.462-.229 1.934-.688.488-.458.731-1.096.731-1.913v-.559l-2.214.172c-.817.072-1.397.244-1.741.516a1.226 1.226 0 0 0-.516 1.032c0 .473.157.831.473 1.075.315.244.76.365 1.333.365ZM86.236 10.065v2.43h-.968c-.96 0-1.712.258-2.257.774-.545.501-.817 1.268-.817 2.3v5.16h-2.623v-10.6h2.472l.215 2.194h-.257a2.944 2.944 0 0 1 1.01-1.72c.53-.445 1.218-.667 2.064-.667.186 0 .373.007.559.022.186.014.387.05.602.107ZM91.804 21.008c-1.032 0-1.92-.229-2.666-.688-.731-.473-1.305-1.125-1.72-1.956-.402-.831-.602-1.799-.602-2.903 0-1.103.2-2.078.602-2.923a4.799 4.799 0 0 1 1.784-2.021c.774-.488 1.692-.731 2.752-.731.746 0 1.426.15 2.043.451.616.287 1.089.695 1.418 1.226v-6.73h2.602V20.73h-2.408l-.172-1.656c-.315.602-.803 1.075-1.462 1.42-.645.343-1.369.515-2.171.515Zm.58-2.408c.617 0 1.147-.129 1.591-.387a2.743 2.743 0 0 0 1.032-1.139c.258-.502.387-1.068.387-1.699 0-.645-.129-1.203-.387-1.676a2.743 2.743 0 0 0-1.032-1.14c-.444-.286-.974-.43-1.59-.43-.603 0-1.126.144-1.57.43a2.743 2.743 0 0 0-1.032 1.14c-.23.487-.344 1.046-.344 1.677 0 .63.114 1.19.344 1.676.243.488.587.868 1.032 1.14.444.272.967.408 1.57.408ZM100.793 17.504h2.494c.015.459.187.824.516 1.096.33.273.789.409 1.376.409.631 0 1.104-.115 1.419-.344.33-.23.495-.538.495-.925 0-.258-.086-.487-.258-.688-.172-.2-.495-.35-.968-.451l-1.913-.451c-.961-.215-1.677-.56-2.15-1.032-.459-.488-.688-1.154-.688-2 0-.688.179-1.283.537-1.784.373-.502.875-.882 1.505-1.14.631-.272 1.355-.408 2.172-.408.788 0 1.483.143 2.085.43.602.286 1.068.688 1.398 1.204.344.516.523 1.118.537 1.806h-2.494c0-.46-.143-.817-.43-1.075-.286-.273-.688-.409-1.204-.409s-.917.115-1.204.344c-.286.23-.43.538-.43.925 0 .587.459.989 1.376 1.204l1.914.451c.888.2 1.555.523 1.999.967.459.445.688 1.076.688 1.892 0 .717-.186 1.34-.559 1.87-.373.517-.896.918-1.569 1.205-.674.272-1.448.408-2.322.408-1.319 0-2.372-.322-3.161-.967-.774-.645-1.161-1.49-1.161-2.537ZM113.325 20.729h-2.623V4.733h2.645v6.751a3.462 3.462 0 0 1 1.376-1.225c.602-.316 1.289-.473 2.063-.473 1.305 0 2.294.394 2.967 1.182.688.789 1.032 1.863 1.032 3.225v6.536h-2.623v-5.912c0-.602-.093-1.097-.279-1.484-.186-.387-.444-.674-.774-.86-.33-.2-.717-.3-1.161-.3-.545 0-1.018.121-1.419.365-.387.229-.688.551-.903.967-.201.416-.301.889-.301 1.419v5.805ZM121.879 15.397c0-1.104.244-2.071.731-2.902a5.155 5.155 0 0 1 2.021-1.978c.86-.473 1.834-.71 2.924-.71 1.103 0 2.078.237 2.924.71a5.162 5.162 0 0 1 2.021 1.978c.487.83.731 1.798.731 2.902s-.244 2.078-.731 2.924a5.205 5.205 0 0 1-2.021 1.956c-.846.473-1.821.71-2.924.71-1.09 0-2.064-.237-2.924-.71a5.199 5.199 0 0 1-2.021-1.956c-.487-.846-.731-1.82-.731-2.924Zm2.623 0c0 .645.129 1.211.387 1.699.272.487.63.867 1.075 1.139.458.272.989.408 1.591.408s1.132-.136 1.591-.408a2.846 2.846 0 0 0 1.075-1.14c.258-.487.387-1.053.387-1.698 0-.66-.129-1.225-.387-1.698a2.846 2.846 0 0 0-1.075-1.14c-.459-.272-.989-.408-1.591-.408s-1.133.136-1.591.408a3.043 3.043 0 0 0-1.075 1.14c-.258.473-.387 1.039-.387 1.698ZM133.291 10.108h6.708v2.193h-6.708v-2.193Zm4.665 10.62h-2.622V6.799h2.622v13.93Z" fill="#1E293B"/><defs><linearGradient id="paint0_linear_29_8" x1="12.404" y1=".467" x2="12.404" y2="25.275" gradientUnits="userSpaceOnUse"><stop stop-color="#5237F8"/><stop offset="0" stop-color="#6033EF"/><stop offset="1" stop-color="#FF008A"/></linearGradient><linearGradient id="paint1_linear_29_8" x1="12.405" y1="9.425" x2="12.405" y2="16.317" gradientUnits="userSpaceOnUse"><stop stop-color="#5237F8"/><stop offset="0" stop-color="#6033EF"/><stop offset="1" stop-color="#FF008A"/></linearGradient></defs></svg>