<svg width="20" height="20" fill="none" xmlns="http://www.w3.org/2000/svg"><mask id="mask0_1_2464" style="mask-type:luminance" maskUnits="userSpaceOnUse" x="0" y="0" width="20" height="20"><path d="M10.405 19.466c5.3 0 9.595-4.296 9.595-9.595a9.595 9.595 0 1 0-19.19 0 9.595 9.595 0 0 0 9.595 9.595Z" fill="#fff"/></mask><g mask="url('#mask0_1_2464')"><path d="M2.337.276v11.776h4.296l3.772-6.542H20V.276H2.337Z" fill="#DB4437"/><path d="M2.337.276v11.776h4.296l3.772-6.542H20V.276H2.337Z" fill="url('#paint0_linear_1_2464')"/><path d="M.81 19.466h9.137l4.253-4.252v-3.162H6.61L.81 2.075v17.39Z" fill="#0F9D58"/><path d="M.81 19.466h9.137l4.253-4.252v-3.162H6.61L.81 2.075v17.39Z" fill="url('#paint1_linear_1_2464')"/><path d="m10.405 5.51 3.773 6.542-4.209 7.414H20V5.51h-9.595Z" fill="#FFCD40"/><path d="m10.405 5.51 3.773 6.542-4.209 7.414H20V5.51h-9.595Z" fill="url('#paint2_linear_1_2464')"/><path d="M6.73 12.019 2.338 4.68l4.252 7.392.142-.054Z" fill="#3E2723" fill-opacity=".1"/><path d="m14.09 12.193-.086-.044-4.067 7.305 4.176-7.305-.022.044Z" fill="#263238" fill-opacity=".1"/><path d="M10.405 5.51V7.8l8.548-2.29h-8.548Z" fill="url('#paint3_radial_1_2464')"/><path d="m2.337 4.692 6.236 6.236-1.94 1.123-4.296-7.36Z" fill="url('#paint4_radial_1_2464')"/><path d="m9.947 19.465 2.29-8.537 1.94 1.123-4.23 7.414Z" fill="url('#paint5_radial_1_2464')"/><path d="M10.405 14.233a4.361 4.361 0 1 0 0-8.723 4.361 4.361 0 0 0 0 8.723Z" fill="#F1F1F1"/><path d="M10.405 13.36a3.489 3.489 0 1 0 0-6.978 3.489 3.489 0 0 0 0 6.978Z" fill="#4285F4"/><path d="M10.405 19.466c5.3 0 9.595-4.296 9.595-9.595a9.595 9.595 0 1 0-19.19 0 9.595 9.595 0 0 0 9.595 9.595Z" fill="url('#paint6_radial_1_2464')"/><path d="M14.178 12.052a4.36 4.36 0 0 1-7.545 0L.81 2.184l5.823 9.977a4.362 4.362 0 0 0 7.545 0v-.11Z" fill="#fff" fill-opacity=".1"/><path d="M10.514 5.51h-.054a4.361 4.361 0 1 1 0 8.723h.054a4.374 4.374 0 0 0 4.362-4.362 4.374 4.374 0 0 0-4.362-4.36Zm-.109 13.847A9.595 9.595 0 0 0 20 9.817v.054a9.595 9.595 0 1 1-19.19 0v-.054a9.595 9.595 0 0 0 9.595 9.54Z" fill="#3E2723" fill-opacity=".1"/><path d="M14.221 12.193a4.285 4.285 0 0 0 .371-3.489 4.142 4.142 0 0 1-.414 3.348l-4.1 7.414 4.165-7.25-.022-.023ZM10.405.385A9.595 9.595 0 0 1 20 9.925v-.054a9.595 9.595 0 1 0-19.19 0v.055a9.595 9.595 0 0 1 9.595-9.54Z" fill="#fff" fill-opacity=".2"/><path d="M10.405 5.4a4.374 4.374 0 0 0-4.361 4.362v.109a4.374 4.374 0 0 1 4.361-4.362H20V5.4h-9.595Z" fill="#3E2723" fill-opacity=".2"/></g><defs><radialGradient id="paint3_radial_1_2464" cx="0" cy="0" r="1" gradientUnits="userSpaceOnUse" gradientTransform="translate(9.99 5.51) scale(9.16958)"><stop stop-color="#3E2723" stop-opacity=".2"/><stop offset="1" stop-color="#3E2723" stop-opacity="0"/></radialGradient><radialGradient id="paint4_radial_1_2464" cx="0" cy="0" r="1" gradientUnits="userSpaceOnUse" gradientTransform="translate(2.326 4.692) scale(8.50448)"><stop stop-color="#3E2723" stop-opacity=".2"/><stop offset="1" stop-color="#3E2723" stop-opacity="0"/></radialGradient><radialGradient id="paint5_radial_1_2464" cx="0" cy="0" r="1" gradientUnits="userSpaceOnUse" gradientTransform="translate(10.383 9.882) scale(9.5839)"><stop stop-color="#263238" stop-opacity=".2"/><stop offset="1" stop-color="#263238" stop-opacity="0"/></radialGradient><radialGradient id="paint6_radial_1_2464" cx="0" cy="0" r="1" gradientUnits="userSpaceOnUse" gradientTransform="translate(3.678 2.893) scale(19.2768)"><stop stop-color="#fff" stop-opacity=".1"/><stop offset="1" stop-color="#fff" stop-opacity="0"/></radialGradient><linearGradient id="paint0_linear_1_2464" x1="3.133" y1="7.69" x2="8.857" y2="4.354" gradientUnits="userSpaceOnUse"><stop stop-color="#A52714" stop-opacity=".6"/><stop offset=".7" stop-color="#A52714" stop-opacity="0"/></linearGradient><linearGradient id="paint1_linear_1_2464" x1="12.03" y1="17.449" x2="5.662" y2="13.72" gradientUnits="userSpaceOnUse"><stop stop-color="#055524" stop-opacity=".4"/><stop offset=".3" stop-color="#055524" stop-opacity="0"/></linearGradient><linearGradient id="paint2_linear_1_2464" x1="13.338" y1="4.943" x2="14.941" y2="11.954" gradientUnits="userSpaceOnUse"><stop stop-color="#EA6100" stop-opacity=".3"/><stop offset=".7" stop-color="#EA6100" stop-opacity="0"/></linearGradient></defs></svg>